<?xml version="1.0" standalone="no"?>
<svg xmlns:xlink="http://www.w3.org/1999/xlink" id="wave" style="transform:rotate(0deg); transition: 0.3s" viewBox="0 0 1440 340" version="1.1" xmlns="http://www.w3.org/2000/svg"><defs><linearGradient id="sw-gradient-0" x1="0" x2="0" y1="1" y2="0"><stop stop-color="rgba(255, 240.778, 236.21, 0)" offset="0%"/><stop stop-color="rgba(225.819, 225.819, 225.819, 0.44)" offset="100%"/></linearGradient></defs><path style="transform:translate(0, 0px); opacity:1" fill="url(#sw-gradient-0)" d="M0,238L12,215.3C24,193,48,147,72,136C96,125,120,147,144,181.3C168,215,192,261,216,232.3C240,204,264,102,288,68C312,34,336,68,360,73.7C384,79,408,57,432,56.7C456,57,480,79,504,85C528,91,552,79,576,79.3C600,79,624,91,648,79.3C672,68,696,34,720,68C744,102,768,204,792,226.7C816,249,840,193,864,192.7C888,193,912,249,936,243.7C960,238,984,170,1008,119C1032,68,1056,34,1080,45.3C1104,57,1128,113,1152,141.7C1176,170,1200,170,1224,158.7C1248,147,1272,125,1296,141.7C1320,159,1344,215,1368,238C1392,261,1416,249,1440,215.3C1464,181,1488,125,1512,85C1536,45,1560,23,1584,56.7C1608,91,1632,181,1656,221C1680,261,1704,249,1716,243.7L1728,238L1728,340L1716,340C1704,340,1680,340,1656,340C1632,340,1608,340,1584,340C1560,340,1536,340,1512,340C1488,340,1464,340,1440,340C1416,340,1392,340,1368,340C1344,340,1320,340,1296,340C1272,340,1248,340,1224,340C1200,340,1176,340,1152,340C1128,340,1104,340,1080,340C1056,340,1032,340,1008,340C984,340,960,340,936,340C912,340,888,340,864,340C840,340,816,340,792,340C768,340,744,340,720,340C696,340,672,340,648,340C624,340,600,340,576,340C552,340,528,340,504,340C480,340,456,340,432,340C408,340,384,340,360,340C336,340,312,340,288,340C264,340,240,340,216,340C192,340,168,340,144,340C120,340,96,340,72,340C48,340,24,340,12,340L0,340Z"/><defs><linearGradient id="sw-gradient-1" x1="0" x2="0" y1="1" y2="0"><stop stop-color="rgba(193.15, 188.694, 255, 0)" offset="0%"/><stop stop-color="rgba(234.926, 234.926, 234.926, 0.38)" offset="100%"/></linearGradient></defs><path style="transform:translate(0, 50px); opacity:0.9" fill="url(#sw-gradient-1)" d="M0,68L12,107.7C24,147,48,227,72,232.3C96,238,120,170,144,158.7C168,147,192,193,216,215.3C240,238,264,238,288,249.3C312,261,336,283,360,243.7C384,204,408,102,432,62.3C456,23,480,45,504,73.7C528,102,552,136,576,147.3C600,159,624,147,648,153C672,159,696,181,720,204C744,227,768,249,792,238C816,227,840,181,864,187C888,193,912,249,936,243.7C960,238,984,170,1008,136C1032,102,1056,102,1080,96.3C1104,91,1128,79,1152,96.3C1176,113,1200,159,1224,175.7C1248,193,1272,181,1296,181.3C1320,181,1344,193,1368,215.3C1392,238,1416,272,1440,243.7C1464,215,1488,125,1512,113.3C1536,102,1560,170,1584,198.3C1608,227,1632,215,1656,204C1680,193,1704,181,1716,175.7L1728,170L1728,340L1716,340C1704,340,1680,340,1656,340C1632,340,1608,340,1584,340C1560,340,1536,340,1512,340C1488,340,1464,340,1440,340C1416,340,1392,340,1368,340C1344,340,1320,340,1296,340C1272,340,1248,340,1224,340C1200,340,1176,340,1152,340C1128,340,1104,340,1080,340C1056,340,1032,340,1008,340C984,340,960,340,936,340C912,340,888,340,864,340C840,340,816,340,792,340C768,340,744,340,720,340C696,340,672,340,648,340C624,340,600,340,576,340C552,340,528,340,504,340C480,340,456,340,432,340C408,340,384,340,360,340C336,340,312,340,288,340C264,340,240,340,216,340C192,340,168,340,144,340C120,340,96,340,72,340C48,340,24,340,12,340L0,340Z"/></svg>